<?xml version="1.0" encoding="UTF-8"?> <svg xmlns="http://www.w3.org/2000/svg" width="325" height="188" viewBox="0 0 325 188" fill="none"><mask id="path-1-inside-1_9346_46792" fill="white"><path d="M0 0H325V188H0V0Z"></path></mask><path d="M0 0V-1H-1V0H0ZM325 0H326V-1H325V0ZM325 188V189H326V188H325ZM0 188H-1V189H0V188ZM0 1H325V-1H0V1ZM324 0V188H326V0H324ZM325 187H0V189H325V187ZM1 188V0H-1V188H1Z" fill="#E1E2E6" mask="url(#path-1-inside-1_9346_46792)"></path><g clip-path="url(#clip0_9346_46792)"><mask id="mask0_9346_46792" style="mask-type:luminance" maskUnits="userSpaceOnUse" x="97" y="80" width="132" height="27"><path d="M228.738 80H97.2598V107H228.738V80Z" fill="white"></path></mask><g mask="url(#mask0_9346_46792)"><path d="M185.277 87.0135C184.021 87.0135 182.986 87.9939 182.986 89.2005V102.097H167.473L165.552 98.5525L162.228 92.6703V82.6395C162.228 81.4329 161.193 80.4525 159.938 80.4525H148.709C147.453 80.4525 146.419 81.4329 146.419 82.6395V102.173H144.277L139.032 92.7452V82.6395C139.032 81.4329 137.997 80.4525 136.741 80.4525H125.513C124.257 80.4525 123.223 81.4329 123.223 82.6395V102.173H119.677L114.727 82.111C114.505 81.1305 113.545 80.4525 112.511 80.4525H106.379C105.345 80.4525 104.458 81.1305 104.163 82.111L98.77 104.209C98.4745 105.416 99.2135 106.622 100.469 106.848C100.543 106.848 100.617 106.848 100.691 106.848C100.765 106.848 100.913 106.848 100.986 106.848C101.134 106.848 101.282 106.848 101.356 106.848C102.242 106.698 102.981 106.095 103.202 105.19L108.226 84.7509H110.812L115.688 104.888C115.909 105.869 116.869 106.622 117.904 106.622H125.513C126.769 106.622 127.802 105.642 127.802 104.435V84.8265H134.599V93.2736C134.599 93.6508 134.673 94.0273 134.895 94.3289L141.026 105.416C141.395 106.095 142.208 106.547 143.021 106.547H148.783C150.039 106.547 151.073 105.566 151.073 104.36V84.8265H157.869V93.2736C157.869 93.6508 157.943 94.0273 158.165 94.3289L164.296 105.416C164.591 105.944 165.109 106.321 165.7 106.472C165.921 106.547 166.069 106.547 166.291 106.547H185.424C186.68 106.547 187.714 105.566 187.714 104.36V89.2761C187.566 87.9939 186.532 87.0135 185.277 87.0135Z" fill="#00084D"></path><path d="M225.02 80.0753C223.764 79.8485 222.582 80.603 222.361 81.8095L218.298 102.173H217.116L213.201 82.1867C212.979 81.1306 212.093 80.377 210.984 80.377H206.7C205.592 80.377 204.705 81.1306 204.484 82.1867L200.494 102.097H199.312L195.323 82.1867C195.101 81.1306 194.215 80.377 193.107 80.377H191.26H171.536C170.28 80.377 169.246 81.3574 169.246 82.564V97.6477C169.246 98.8542 170.28 99.8347 171.536 99.8347C172.791 99.8347 173.826 98.8542 173.826 97.6477V84.8266H191.26V84.9022L195.175 104.813C195.397 105.869 196.284 106.623 197.392 106.623H202.341C203.449 106.623 204.336 105.869 204.557 104.813L208.547 84.9022H209.138L213.127 104.813C213.349 105.869 214.235 106.623 215.343 106.623H220.292C221.401 106.623 222.287 105.869 222.508 104.813L226.498 84.1477V81.0558C226.203 80.5274 225.685 80.1509 225.02 80.0753Z" fill="#00084D"></path></g></g><defs><clipPath id="clip0_9346_46792"><rect width="131.478" height="27" fill="white" transform="translate(97.2617 80)"></rect></clipPath></defs></svg> 