<?xml version="1.0" encoding="UTF-8"?> <svg xmlns="http://www.w3.org/2000/svg" width="326" height="188" viewBox="0 0 326 188" fill="none"><mask id="path-1-inside-1_9346_46784" fill="white"><path d="M0 0H326V188H0V0Z"></path></mask><path d="M0 0V-1H-1V0H0ZM326 0H327V-1H326V0ZM326 188V189H327V188H326ZM0 188H-1V189H0V188ZM0 1H326V-1H0V1ZM325 0V188H327V0H325ZM326 187H0V189H326V187ZM1 188V0H-1V188H1Z" fill="#E1E2E6" mask="url(#path-1-inside-1_9346_46784)"></path><g clip-path="url(#clip0_9346_46784)"><path d="M208.079 102.378C207.797 102.378 207.603 102.182 207.603 101.901V87.9177H202.852C202.57 87.9177 202.375 87.7228 202.375 87.441V85.5122C202.375 85.2298 202.57 85.0344 202.852 85.0344H215.497C215.779 85.0344 215.973 85.23 215.973 85.5122V87.4409C215.973 87.7225 215.779 87.9177 215.497 87.9177H210.747V101.9C210.747 102.182 210.551 102.378 210.27 102.378H208.079ZM171.692 95.3967L169.199 88.2433L166.683 95.3967H171.692ZM177.223 101.813C177.332 102.095 177.158 102.378 176.854 102.378H174.599C174.273 102.378 174.078 102.226 173.969 101.922L172.69 98.2374H165.686L164.405 101.922C164.297 102.227 164.101 102.378 163.776 102.378H161.652C161.369 102.378 161.174 102.095 161.282 101.813L167.16 85.4689C167.268 85.1644 167.463 85.0351 167.788 85.0351H170.694C171.02 85.0351 171.237 85.1645 171.345 85.4689L177.223 101.813ZM194.069 100.036C195.456 100.036 196.389 99.3651 197.148 98.2156L193.636 94.443C192.29 95.2024 191.422 95.9601 191.422 97.4781C191.423 98.9742 192.637 100.036 194.069 100.036ZM195.045 87.3322C193.917 87.3322 193.267 88.0483 193.267 89.002C193.267 89.739 193.656 90.3894 194.546 91.3435C196.085 90.4541 196.736 89.9124 196.736 88.9588C196.736 88.0693 196.173 87.3322 195.045 87.3322ZM204.653 101.771C204.935 102.074 204.761 102.378 204.413 102.378H201.659C201.291 102.378 201.095 102.291 200.857 102.008L199.209 100.188C198.103 101.662 196.562 102.768 194.003 102.768C190.837 102.768 188.342 100.86 188.342 97.5874C188.342 95.0718 189.688 93.7275 191.727 92.6004C190.728 91.4516 190.274 90.2375 190.274 89.1758C190.274 86.4869 192.16 84.6445 195.001 84.6445C197.907 84.6445 199.686 86.3578 199.686 88.8936C199.686 91.0615 198.125 92.2744 196.476 93.1856L198.905 95.8096L200.271 93.424C200.445 93.1426 200.64 93.0339 200.986 93.0339H203.09C203.437 93.0339 203.632 93.2729 203.416 93.6413L200.987 97.8029L204.653 101.771ZM183.009 102.378C183.291 102.378 183.487 102.182 183.487 101.901V87.9177H188.236C188.518 87.9177 188.713 87.7228 188.713 87.441V85.5122C188.713 85.2298 188.518 85.0344 188.236 85.0344H175.592C175.31 85.0344 175.115 85.23 175.115 85.5122V87.4409C175.115 87.7225 175.31 87.9177 175.592 87.9177H180.341V101.9C180.341 102.182 180.537 102.378 180.818 102.378H183.009Z" fill="#00084D"></path><path d="M118.825 110.812C122.503 113.659 127.119 115.37 132.128 115.37C137.609 115.37 142.606 113.335 146.419 109.994C146.466 109.954 146.443 109.927 146.397 109.954C144.686 111.096 139.809 113.591 132.128 113.591C125.453 113.591 121.235 112.102 118.853 110.772C118.807 110.75 118.79 110.784 118.825 110.812ZM133.6 111.92C138.939 111.92 144.806 110.465 148.314 107.585C149.274 106.8 150.189 105.755 151.008 104.351C151.479 103.543 151.941 102.584 152.316 101.64C152.333 101.594 152.305 101.572 152.27 101.624C149.007 106.425 139.559 109.42 129.803 109.42C122.907 109.42 115.487 107.215 112.582 103.004C112.554 102.965 112.525 102.982 112.542 103.027C115.249 108.778 123.458 111.92 133.6 111.92ZM127.767 102.379C116.664 102.379 111.429 97.2077 110.479 93.6788C110.467 93.6277 110.434 93.6389 110.434 93.6848C110.434 94.8728 110.553 96.4059 110.757 97.4235C110.855 97.9189 111.258 98.6963 111.849 99.3159C114.538 102.118 121.241 106.045 132.849 106.045C148.666 106.045 152.282 100.777 153.021 99.0441C153.549 97.8051 153.822 95.5659 153.822 93.6849C153.822 93.2297 153.811 92.8661 153.794 92.5092C153.794 92.4513 153.76 92.4465 153.748 92.503C152.958 96.7424 139.445 102.379 127.767 102.379ZM112.525 84.382C111.889 85.6446 111.184 87.7747 110.974 88.8771C110.882 89.3495 110.921 89.5763 111.087 89.9288C112.418 92.7523 119.149 97.2699 134.851 97.2699C144.43 97.2699 151.872 94.9166 153.077 90.6221C153.299 89.8315 153.311 88.9969 153.026 87.8721C152.707 86.6153 152.111 85.1497 151.606 84.1206C151.589 84.0871 151.559 84.092 151.565 84.1317C151.753 89.7643 136.045 93.3945 128.119 93.3945C119.534 93.3945 112.372 89.9742 112.372 85.6553C112.372 85.2404 112.458 84.8253 112.565 84.3933C112.576 84.3539 112.542 84.3473 112.525 84.382ZM146.455 77.4662C146.546 77.6091 146.591 77.7616 146.591 77.9668C146.591 80.3761 139.217 84.6384 127.478 84.6384C118.853 84.6384 117.238 81.4388 117.238 79.404C117.238 78.6766 117.517 77.9324 118.131 77.1765C118.165 77.1316 118.136 77.1143 118.098 77.1477C116.977 78.0973 115.948 79.1658 115.044 80.3192C114.613 80.8646 114.345 81.3479 114.345 81.6374C114.345 85.8542 124.919 88.9116 134.806 88.9116C145.34 88.9116 150.042 85.4727 150.042 82.4505C150.042 81.3704 149.621 80.7399 148.546 79.5175C147.848 78.7223 147.187 78.0748 146.488 77.4374C146.455 77.4096 146.431 77.4323 146.455 77.4662ZM143.225 75.0574C139.974 73.1087 136.198 72 132.128 72C128.029 72 124.14 73.1474 120.877 75.1477C119.898 75.7501 119.348 76.2328 119.348 76.8532C119.348 78.6823 123.622 80.649 131.206 80.649C138.712 80.649 144.533 78.4948 144.533 76.4213C144.533 75.9264 144.1 75.5801 143.225 75.0574Z" fill="#00084D"></path></g><defs><clipPath id="clip0_9346_46784"><rect width="105.539" height="43.3721" fill="white" transform="translate(110.434 72)"></rect></clipPath></defs></svg> 