<?xml version="1.0" encoding="UTF-8"?> <svg xmlns="http://www.w3.org/2000/svg" width="326" height="188" viewBox="0 0 326 188" fill="none"><mask id="path-1-inside-1_9346_46777" fill="white"><path d="M0 0H326V188H0V0Z"></path></mask><path d="M0 0V-1H-1V0H0ZM326 0H327V-1H326V0ZM326 188V189H327V188H326ZM0 188H-1V189H0V188ZM0 1H326V-1H0V1ZM325 0V188H327V0H325ZM326 187H0V189H326V187ZM1 188V0H-1V188H1Z" fill="#E1E2E6" mask="url(#path-1-inside-1_9346_46777)"></path><path fill-rule="evenodd" clip-rule="evenodd" d="M213.011 108.146V102.833C213.011 101.433 212.691 100.314 212.052 99.4762C211.411 98.6375 210.479 98.2189 209.251 98.2189C208.042 98.2189 206.824 98.7548 205.597 99.8264C205.229 98.7897 204.511 98.271 203.441 98.271H201.889L201.706 98.4527V111.386C202.004 111.439 202.327 111.477 202.68 111.503C203.397 111.556 204.117 111.556 204.834 111.503C205.186 111.477 205.51 111.439 205.807 111.387V102.729C206.159 102.417 206.499 102.193 206.833 102.055C207.166 101.916 207.464 101.846 207.728 101.846C208.181 101.846 208.489 101.986 208.648 102.262C208.805 102.539 208.883 102.97 208.883 103.559V109.079C208.883 109.925 209.05 110.557 209.382 110.971C209.716 111.385 210.338 111.592 211.25 111.592C212.179 111.592 212.976 111.3 213.642 110.712C213.222 110.142 213.011 109.286 213.011 108.146ZM195.787 107.744C195.54 108.41 195.029 108.742 194.252 108.742C193.863 108.742 193.55 108.656 193.312 108.483C193.075 108.311 192.889 108.046 192.756 107.692C192.623 107.338 192.535 106.899 192.49 106.371C192.443 105.745 192.421 105.118 192.425 104.491C192.425 104.025 192.451 103.588 192.504 103.183C192.558 102.777 192.655 102.418 192.795 102.107C192.937 101.796 193.127 101.55 193.365 101.369C193.604 101.187 193.917 101.096 194.305 101.096C195.046 101.096 195.54 101.421 195.786 102.068C196.035 102.716 196.159 103.662 196.159 104.907C196.159 106.134 196.034 107.08 195.787 107.744ZM194.291 98.0636C193.31 98.0636 192.442 98.2283 191.689 98.556C190.956 98.8686 190.308 99.3483 189.797 99.9561C189.288 100.561 188.902 101.283 188.639 102.12C188.377 102.958 188.245 103.896 188.245 104.932C188.245 105.951 188.376 106.885 188.639 107.731C188.902 108.578 189.293 109.3 189.809 109.896C190.327 110.493 190.975 110.967 191.702 111.283C192.447 111.611 193.31 111.775 194.291 111.775C195.273 111.775 196.141 111.616 196.894 111.295C197.647 110.977 198.284 110.518 198.801 109.921C199.318 109.326 199.713 108.604 199.984 107.758C200.256 106.911 200.391 105.968 200.391 104.932C200.391 102.617 199.76 100.837 198.498 99.5927C197.429 98.5738 196.026 98.0636 194.291 98.0636ZM186.615 98.2708C185.09 98.2708 183.994 99.0482 183.329 100.604C182.698 99.1515 181.575 98.3663 179.963 98.2444C179.717 98.4346 179.472 98.7414 179.226 99.1647C178.982 99.5887 178.815 99.9723 178.727 100.318C179.392 100.82 179.726 101.718 179.726 103.014V111.386C180.322 111.489 181.009 111.542 181.79 111.542C182.57 111.542 183.249 111.489 183.828 111.387V103.324C184.389 102.443 185.108 102.003 185.985 102.003C186.579 102.072 187.027 102.158 187.325 102.262C187.64 101.743 187.89 101.117 188.074 100.382C188.258 99.6486 188.35 99.0133 188.35 98.4775C187.649 98.3384 187.07 98.2708 186.615 98.2708ZM172.154 108.638C171.682 108.638 171.112 108.441 170.445 108.043V102.34C170.988 101.649 171.629 101.303 172.365 101.303C173.416 101.303 173.943 102.443 173.943 104.725C173.943 107.334 173.347 108.638 172.154 108.638ZM176.93 99.9032C176.539 99.3161 176.061 98.8634 175.503 98.5434C174.943 98.2227 174.296 98.0635 173.562 98.0635C172.131 98.0635 170.916 98.5559 169.919 99.5413C169.429 98.6949 168.683 98.2708 167.685 98.2708H166.606L166.423 98.4525V116.803L166.606 116.984H168.184C169.026 116.984 169.612 116.803 169.946 116.441C170.279 116.078 170.445 115.446 170.445 114.549V111.101C171.25 111.463 172.052 111.645 172.856 111.645C173.607 111.645 174.303 111.485 174.939 111.166C175.587 110.838 176.155 110.374 176.603 109.806C177.075 109.218 177.446 108.501 177.717 107.654C177.988 106.807 178.123 105.866 178.123 104.828C178.123 103.792 178.022 102.859 177.822 102.03C177.621 101.199 177.323 100.492 176.93 99.9032ZM158.838 104.401C158.619 104.392 158.466 104.386 158.378 104.386H156.459L155.407 104.413L156.012 102.417C156.713 99.8606 157.134 98.2104 157.274 97.4672H157.432C157.975 99.5756 158.457 101.354 158.877 102.805L159.323 104.413C159.219 104.413 159.057 104.407 158.838 104.401ZM157.537 93.5275C156.626 93.5275 155.828 93.5795 155.144 93.6828L149.36 111.075L149.49 111.282C150.018 111.472 150.701 111.568 151.542 111.568C152.295 111.568 152.883 111.515 153.303 111.413L154.434 107.654C154.661 107.672 155.013 107.681 155.486 107.681H159.219C159.675 107.681 160.017 107.672 160.244 107.654L160.744 109.366C161.007 110.246 161.323 110.842 161.691 111.153C162.059 111.464 162.699 111.62 163.61 111.62C164.381 111.62 165.073 111.456 165.687 111.128L160.009 93.7092C159.394 93.5889 158.57 93.5275 157.537 93.5275ZM189.333 80.1719C189.603 79.7829 190.015 79.5887 190.572 79.5887C191.146 79.5887 191.576 79.796 191.863 80.21C192.149 80.6247 192.295 81.152 192.295 81.7919V82.0769H188.848C188.901 81.1955 189.063 80.561 189.333 80.1719ZM185.971 88.4526C186.442 89.0806 187.066 89.5802 187.784 89.9048C188.53 90.2496 189.455 90.4228 190.559 90.4228C192.591 90.4228 194.309 89.9304 195.711 88.945C195.571 87.9432 195.214 87.1479 194.638 86.5608C193.922 86.8279 193.289 87.0198 192.74 87.1371C192.189 87.2536 191.704 87.3126 191.285 87.3126C190.447 87.3126 189.845 87.0984 189.477 86.6704C189.111 86.2433 188.911 85.6453 188.876 84.8765H195.713C195.94 84.1496 196.053 83.2604 196.053 82.2066C196.053 81.4114 195.926 80.6768 195.672 80.0027C195.434 79.3548 195.062 78.7634 194.581 78.2663C194.092 77.7726 193.506 77.3845 192.86 77.1262C192.184 76.8497 191.426 76.7116 190.585 76.7116C189.585 76.7116 188.713 76.8839 187.97 77.2295C187.251 77.5539 186.621 78.0422 186.129 78.6545C185.647 79.2595 185.288 79.9732 185.05 80.794C184.813 81.6141 184.695 82.5079 184.695 83.4763C184.695 84.4781 184.791 85.403 184.985 86.2495C185.178 87.0959 185.507 87.8306 185.971 88.4526ZM172.023 85.653C172.023 87.0524 172.343 88.1723 172.983 89.0094C173.622 89.8481 174.556 90.2675 175.784 90.2675C177.009 90.2675 178.316 89.654 179.7 88.427C180.331 89.5848 181.365 90.189 182.803 90.2418C183.066 90.0516 183.32 89.7526 183.565 89.3457C183.81 88.9419 183.977 88.5652 184.065 88.2196C183.574 87.8911 183.329 87.2605 183.329 86.3271V77.0998C182.715 76.9957 182.023 76.9446 181.252 76.9446C180.48 76.9446 179.804 76.9959 179.227 77.0998V85.7563C178.631 86.3442 178.043 86.6377 177.467 86.6377C176.87 86.6377 176.501 86.5004 176.36 86.2238C176.22 85.9473 176.152 85.5062 176.152 84.9013V79.407C176.152 78.5605 175.985 77.9292 175.651 77.5145C175.318 77.0998 174.688 76.8924 173.758 76.8924C172.829 76.8924 172.042 77.1784 171.393 77.7483C171.813 78.3532 172.024 79.216 172.024 80.3397L172.023 85.653ZM171.366 89.9025C171.419 89.7278 171.446 89.3526 171.446 88.778C171.446 88.2033 171.34 87.6279 171.13 87.0525H170.42C169.647 87.0525 169.262 86.6478 169.262 85.8371V73.3893C169.262 72.4932 169.097 71.8634 168.763 71.4999C168.43 71.138 167.851 70.9563 167.027 70.9563H165.425L165.266 71.138V86.5608C165.266 87.8049 165.516 88.7166 166.016 89.2944C166.515 89.8737 167.36 90.1626 168.553 90.1626C169.377 90.1626 170.314 90.0762 171.366 89.9025ZM155.302 82.2314H157.472C158.396 82.2314 159.072 82.4815 159.498 82.9824C159.926 83.484 160.14 84.0719 160.14 84.7452C160.14 85.4542 159.974 86.0064 159.642 86.404C159.333 86.7889 158.899 87.0548 158.414 87.1557C157.893 87.2624 157.362 87.3059 156.831 87.2854C156.321 87.2675 155.811 87.2675 155.302 87.2854V82.2314ZM155.302 75.104C155.528 75.1216 155.793 75.1304 156.099 75.1304H157.157C157.975 75.1304 158.558 75.3245 158.907 75.7129C159.255 76.1012 159.431 76.5904 159.431 77.1783C159.431 77.7654 159.26 78.2624 158.92 78.6685C158.581 79.0747 157.993 79.2773 157.157 79.2773H155.303L155.302 75.104ZM155.197 90.1619C156.266 90.1795 157.125 90.1883 157.773 90.1883C159.876 90.1883 161.502 89.7603 162.651 88.9053C163.799 88.0496 164.373 86.7325 164.373 84.9526C164.373 84.4509 164.289 83.964 164.124 83.4879C163.961 83.0199 163.736 82.5755 163.455 82.1662C163.176 81.7616 162.835 81.4028 162.445 81.103C162.072 80.8117 161.65 80.5883 161.198 80.443C161.88 80.1494 162.439 79.6742 162.876 79.0172C163.304 78.3899 163.533 77.6494 163.532 76.8917C163.532 75.3199 162.984 74.1411 161.888 73.3536C160.793 72.5677 159.29 72.1732 157.38 72.1732C156.766 72.1732 155.956 72.185 154.948 72.1996C153.939 72.2172 152.726 72.2422 151.306 72.2774L151.122 72.4582V89.9032L151.306 90.084C152.831 90.1189 154.128 90.1454 155.197 90.1619ZM135.219 71.1241C134.073 70.806 132.908 70.5604 131.731 70.3887L131.27 78.0364H123.615L123.155 70.3887C121.966 70.5633 120.804 70.8095 119.669 71.1264C119.194 76.0219 120.784 88.1241 111.391 93.9049V109.889C111.391 109.889 117.094 115.936 127.446 115.936C137.794 115.936 143.497 109.5 143.497 109.5V93.9049C134.101 88.1241 135.69 76.0204 135.219 71.1241Z" fill="#00084D"></path></svg> 