<?xml version="1.0" encoding="UTF-8"?> <svg xmlns="http://www.w3.org/2000/svg" width="326" height="188" viewBox="0 0 326 188" fill="none"><mask id="path-1-inside-1_9346_46768" fill="white"><path d="M0 0H326V188H0V0Z"></path></mask><path d="M0 0V-1H-1V0H0ZM326 0H327V-1H326V0ZM326 188V189H327V188H326ZM0 188H-1V189H0V188ZM0 1H326V-1H0V1ZM325 0V188H327V0H325ZM326 187H0V189H326V187ZM1 188V0H-1V188H1Z" fill="#E1E2E6" mask="url(#path-1-inside-1_9346_46768)"></path><path d="M135.087 81.542C134.773 81.542 134.506 81.7701 134.457 82.0807L130.818 105.145C130.804 105.23 130.81 105.316 130.833 105.398C130.856 105.48 130.897 105.556 130.952 105.621C131.008 105.686 131.077 105.738 131.154 105.773C131.232 105.809 131.316 105.827 131.401 105.827H135.717C136.031 105.827 136.298 105.599 136.348 105.289L137.417 98.5156C137.465 98.2055 137.733 97.9769 138.047 97.9769H141.971C146.555 97.9769 150.447 94.6338 151.158 90.1039C151.875 85.5355 148.304 81.5519 143.242 81.542H135.087ZM139.283 86.6909H142.422C145.007 86.6909 145.848 88.215 145.582 89.9005C145.316 91.5897 144.009 92.8338 141.509 92.8338H138.313L139.283 86.6909ZM159.936 88.2588C158.846 88.2628 157.592 88.486 156.184 89.072C152.955 90.4172 151.404 93.1972 150.746 95.2239C150.746 95.2239 148.65 101.407 153.385 104.805C153.385 104.805 157.777 108.075 162.721 104.603L162.636 105.145C162.623 105.23 162.628 105.316 162.651 105.398C162.674 105.48 162.715 105.556 162.77 105.62C162.826 105.685 162.895 105.737 162.972 105.773C163.049 105.809 163.134 105.827 163.219 105.827H167.316C167.63 105.827 167.897 105.599 167.946 105.289L170.438 89.4939C170.452 89.4097 170.447 89.3236 170.424 89.2415C170.4 89.1593 170.36 89.0832 170.304 89.0183C170.249 88.9534 170.18 88.9013 170.103 88.8655C170.025 88.8297 169.941 88.8111 169.856 88.811H165.759C165.444 88.811 165.177 89.0395 165.128 89.3497L164.994 90.1999C164.994 90.1999 163.205 88.2466 159.936 88.2588ZM160.07 93.2477C160.54 93.2477 160.97 93.3126 161.356 93.4365C163.124 94.0036 164.126 95.7009 163.836 97.5405C163.479 99.8058 161.62 101.474 159.236 101.474C158.766 101.474 158.336 101.409 157.949 101.285C156.182 100.718 155.173 99.0209 155.463 97.1813C155.821 94.916 157.686 93.2477 160.07 93.2477Z" fill="#00084D"></path><path opacity="0.5" d="M194.085 81.542C193.771 81.542 193.504 81.7701 193.455 82.0807L189.816 105.145C189.803 105.23 189.808 105.316 189.831 105.398C189.854 105.48 189.895 105.556 189.95 105.621C190.006 105.686 190.075 105.738 190.152 105.773C190.23 105.809 190.314 105.827 190.399 105.827H194.715C195.029 105.827 195.297 105.599 195.346 105.289L196.415 98.5156C196.463 98.2055 196.731 97.9769 197.045 97.9769H200.969C205.554 97.9769 209.445 94.6338 210.155 90.1039C210.872 85.5355 207.302 81.5519 202.241 81.542H194.085ZM198.281 86.6909H201.42C204.005 86.6909 204.846 88.215 204.58 89.9005C204.314 91.5897 203.007 92.8338 200.507 92.8338H197.311L198.281 86.6909ZM218.933 88.2588C217.843 88.2628 216.59 88.486 215.182 89.072C211.953 90.4172 210.402 93.1972 209.743 95.2239C209.743 95.2239 207.648 101.407 212.384 104.805C212.384 104.805 216.775 108.075 221.719 104.603L221.634 105.145C221.621 105.23 221.626 105.316 221.649 105.398C221.673 105.48 221.713 105.556 221.769 105.621C221.824 105.686 221.893 105.738 221.971 105.773C222.048 105.809 222.132 105.827 222.218 105.827H226.314C226.629 105.827 226.896 105.599 226.945 105.289L229.438 89.4939C229.451 89.4096 229.446 89.3234 229.423 89.2412C229.4 89.1591 229.359 89.0829 229.304 89.018C229.248 88.9531 229.179 88.901 229.102 88.8652C229.024 88.8295 228.94 88.811 228.854 88.811H224.757C224.443 88.811 224.175 89.0395 224.127 89.3497L223.993 90.1999C223.993 90.1999 222.203 88.2466 218.933 88.2588ZM219.067 93.2477C219.538 93.2477 219.968 93.3126 220.354 93.4365C222.122 94.0036 223.124 95.7009 222.834 97.5405C222.476 99.8058 220.617 101.474 218.234 101.474C217.764 101.474 217.333 101.409 216.947 101.285C215.18 100.718 214.171 99.0209 214.461 97.1813C214.819 94.916 216.683 93.2477 219.067 93.2477Z" fill="#00084D"></path><path d="M172.386 88.811C172.061 88.811 171.83 89.1279 171.929 89.4367L176.421 103.367L172.36 109.931C172.163 110.25 172.392 110.661 172.767 110.661H177.567C177.704 110.661 177.839 110.626 177.959 110.558C178.078 110.491 178.178 110.394 178.249 110.276L190.794 89.5368C190.986 89.2181 190.756 88.8105 190.384 88.8105H185.584C185.445 88.8107 185.309 88.8468 185.189 88.9155C185.068 88.9842 184.968 89.083 184.897 89.2023L179.96 97.5338L177.453 89.264C177.371 88.9949 177.123 88.8105 176.842 88.8105L172.386 88.811Z" fill="#00084D"></path><path opacity="0.5" d="M234.096 81.5418C233.783 81.5418 233.515 81.7704 233.466 82.0805L229.826 105.144C229.813 105.229 229.818 105.315 229.841 105.397C229.864 105.479 229.905 105.555 229.96 105.62C230.016 105.685 230.085 105.737 230.162 105.773C230.24 105.809 230.324 105.827 230.41 105.827H234.725C235.039 105.827 235.307 105.599 235.356 105.289L238.995 82.2239C239.008 82.1397 239.003 82.0536 238.98 81.9716C238.957 81.8897 238.916 81.8137 238.861 81.7489C238.805 81.6841 238.736 81.632 238.659 81.5963C238.582 81.5605 238.497 81.542 238.412 81.5418H234.096Z" fill="#00084D"></path><path d="M99.1113 81.5418C98.8333 81.542 98.5645 81.6413 98.3532 81.8219C98.1419 82.0024 98.0019 82.2524 97.9584 82.5268L96.0428 94.6693C96.1321 94.1022 96.621 93.6843 97.1957 93.6843H102.809C108.459 93.6843 113.252 89.5654 114.128 83.9837C114.193 83.567 114.23 83.1464 114.239 82.7247C112.803 81.9723 111.117 81.5418 109.269 81.5418H99.1113Z" fill="#00084D"></path><path opacity="0.5" d="M114.24 82.7253C114.232 83.147 114.195 83.5676 114.13 83.9843C113.254 89.566 108.46 93.6849 102.811 93.6849H97.1972C96.623 93.6849 96.1337 94.1023 96.0443 94.6699L94.283 105.828L93.1797 112.828C93.1581 112.963 93.1662 113.101 93.2034 113.233C93.2405 113.365 93.3058 113.487 93.3948 113.591C93.4838 113.695 93.5943 113.779 93.7188 113.836C93.8432 113.894 93.9786 113.923 94.1156 113.923H100.208C100.486 113.923 100.755 113.824 100.967 113.643C101.178 113.463 101.318 113.213 101.361 112.938L102.966 102.765C103.01 102.491 103.15 102.241 103.361 102.06C103.573 101.879 103.842 101.78 104.12 101.78H107.707C113.357 101.78 118.151 97.6613 119.027 92.0796C119.649 88.1181 117.652 84.5131 114.24 82.7253Z" fill="#00084D"></path><path opacity="0.8" d="M92.188 73.4482C91.6139 73.4482 91.1245 73.8657 91.0352 74.4323L86.254 104.733C86.1633 105.308 86.608 105.828 87.1908 105.828H94.281L96.0414 94.6701L97.957 82.5276C98.0005 82.2532 98.1405 82.0032 98.3518 81.8227C98.5631 81.6422 98.8319 81.5429 99.11 81.5426H109.267C111.116 81.5426 112.802 81.9736 114.237 82.7255C114.336 77.6437 110.14 73.4482 104.372 73.4482H92.188Z" fill="#00084D"></path></svg> 