<?xml version="1.0" encoding="UTF-8"?> <svg xmlns="http://www.w3.org/2000/svg" width="326" height="188" viewBox="0 0 326 188" fill="none"><mask id="path-1-inside-1_9346_46789" fill="white"><path d="M0 0H326V188H0V0Z"></path></mask><path d="M0 0V-1H-1V0H0ZM326 0H327V-1H326V0ZM326 188V189H327V188H326ZM0 188H-1V189H0V188ZM0 1H326V-1H0V1ZM325 0V188H327V0H325ZM326 187H0V189H326V187ZM1 188V0H-1V188H1Z" fill="#E1E2E6" mask="url(#path-1-inside-1_9346_46789)"></path><g clip-path="url(#clip0_9346_46789)"><path d="M114.182 98.0257C114.182 98.8359 114.009 99.5887 113.663 100.285C113.317 100.971 112.827 101.562 112.212 102.039C111.588 102.525 110.849 102.897 109.993 103.163C109.138 103.43 108.197 103.564 107.179 103.564C105.958 103.564 104.864 103.401 103.903 103.068C102.943 102.744 101.972 102.191 101.002 101.428L102.607 98.8448C103.375 99.4834 104.066 99.9501 104.691 100.246C105.306 100.542 105.94 100.685 106.593 100.685C107.391 100.685 108.025 100.484 108.515 100.075C109.005 99.6646 109.235 99.1214 109.235 98.4257C109.235 98.1303 109.187 97.8538 109.101 97.5965C109.015 97.3391 108.851 97.0722 108.621 96.7958C108.39 96.529 108.064 96.224 107.651 95.9094C107.247 95.5948 106.719 95.1945 106.065 94.7273C105.575 94.3842 105.086 94.022 104.615 93.6594C104.144 93.2877 103.721 92.8969 103.327 92.4773C102.943 92.0579 102.636 91.591 102.395 91.0669C102.165 90.5522 102.04 89.9515 102.04 89.2938C102.04 88.5313 102.203 87.8257 102.52 87.1963C102.837 86.5669 103.279 86.0334 103.836 85.5858C104.394 85.1378 105.057 84.7947 105.844 84.5472C106.622 84.2994 107.467 84.1755 108.389 84.1755C109.359 84.1755 110.291 84.2994 111.194 84.5568C112.096 84.8141 112.933 85.1858 113.711 85.6813L112.26 88.0071C111.271 87.3208 110.223 86.9685 109.128 86.9685C108.465 86.9685 107.908 87.14 107.476 87.4831C107.044 87.8262 106.823 88.2552 106.823 88.7794C106.823 89.2751 107.015 89.723 107.399 90.114C107.783 90.5143 108.446 91.0577 109.388 91.7821C110.339 92.4684 111.127 93.0784 111.742 93.5926C112.366 94.1073 112.856 94.603 113.221 95.0606C113.586 95.5182 113.826 95.9757 113.97 96.4519C114.114 96.938 114.182 97.4533 114.182 98.0257ZM130.656 93.6701C130.656 94.3849 130.579 95.1573 130.425 95.9858C130.281 96.8151 130.022 97.5781 129.657 98.2833C129.292 98.9886 128.821 99.5705 128.235 100.018C127.649 100.476 126.899 100.704 126.006 100.704C124.508 100.704 123.326 100.113 122.462 98.9221C121.597 97.74 121.165 96.1103 121.165 94.0421C121.165 91.9164 121.597 90.2392 122.481 88.9905C123.355 87.7417 124.546 87.1223 126.045 87.1223C127.467 87.1223 128.59 87.7133 129.416 88.8763C130.242 90.0483 130.656 91.6495 130.656 93.6701ZM135.862 93.489C135.862 92.1068 135.66 90.849 135.266 89.7245C134.863 88.5899 134.306 87.6179 133.566 86.7985C132.826 85.9788 131.961 85.3497 130.953 84.892C129.945 84.4343 128.831 84.2058 127.61 84.2058C126.266 84.2058 125.084 84.4631 124.066 84.9588C123.048 85.464 122.096 86.2551 121.232 87.3412L121.203 84.6436H116.41V112.367H121.194V100.657C121.665 101.201 122.116 101.658 122.558 102.029C122.99 102.401 123.432 102.706 123.883 102.935C124.335 103.164 124.805 103.335 125.304 103.431C125.804 103.526 126.342 103.574 126.909 103.574C128.177 103.574 129.368 103.316 130.463 102.821C131.557 102.315 132.508 101.61 133.306 100.695C134.103 99.7794 134.728 98.7125 135.179 97.5021C135.64 96.2816 135.862 94.9378 135.862 93.489ZM137.994 103.126H142.912V75.998H137.994V103.126ZM163.888 103.135V84.6257H158.97V94.5856C158.97 95.4721 158.932 96.1587 158.855 96.6447C158.778 97.1307 158.653 97.5596 158.48 97.9601C157.788 99.4847 156.51 100.258 154.657 100.258C153.207 100.258 152.198 99.7429 151.621 98.7037C151.391 98.3129 151.237 97.8649 151.151 97.3691C151.064 96.8735 151.016 96.1587 151.016 95.215V84.6267H146.099V95.1443C146.099 95.8591 146.108 96.4689 146.118 96.9548C146.127 97.4409 146.166 97.8889 146.214 98.2703C146.262 98.6516 146.319 98.9947 146.387 99.2907C146.444 99.5861 146.54 99.8721 146.665 100.139C147.117 101.274 147.838 102.131 148.846 102.712C149.855 103.294 151.094 103.58 152.554 103.58C153.87 103.58 155.032 103.351 156.031 102.893C157.03 102.436 158 101.692 158.941 100.653L158.951 103.132L163.888 103.141L163.888 103.135ZM185.081 103.126V92.6282C185.081 91.9133 185.072 91.3036 185.062 90.7984C185.052 90.2933 185.024 89.8549 184.966 89.483C184.918 89.1112 184.851 88.7872 184.784 88.5107C184.707 88.2248 184.62 87.9484 184.524 87.6815C184.073 86.5762 183.352 85.7184 182.344 85.1172C181.335 84.5161 180.096 84.2118 178.626 84.2118C177.31 84.2118 176.148 84.4405 175.149 84.898C174.15 85.3555 173.179 86.1084 172.238 87.1379L172.229 84.6596H167.281V103.128H172.238V93.1585C172.238 92.3006 172.267 91.6238 172.334 91.1469C172.391 90.6703 172.516 90.2224 172.689 89.7931C173.006 89.0496 173.506 88.4968 174.168 88.1159C174.831 87.735 175.619 87.5441 176.541 87.5441C177.991 87.5441 178.999 88.0587 179.576 89.098C179.797 89.4888 179.951 89.9367 180.038 90.4225C180.124 90.9087 180.172 91.6329 180.172 92.5674V103.105L185.081 103.115L185.081 103.126ZM205.429 101.905L197.937 92.6686L204.267 85.9397L200.54 84.3485L193.95 91.926H193.432V76.0031H188.475V103.131H193.432V93.3041L200.847 103.498L205.428 101.906L205.429 101.905ZM224.584 95.2712V92.2493L209.68 84.8334V88.1595L221.23 93.7355L209.68 99.3873V102.638L224.584 95.2712ZM211.127 80.0353C210.215 80.0353 209.475 80.7788 209.475 81.6943C209.475 82.6284 210.215 83.3624 211.127 83.3624C212.05 83.3624 212.78 82.6285 212.78 81.6943C212.78 80.7698 212.05 80.0353 211.127 80.0353ZM211.138 80.2927C211.877 80.2927 212.472 80.9217 212.472 81.7031C212.472 82.4847 211.877 83.1135 211.138 83.1044C210.388 83.1044 209.792 82.4849 209.792 81.694C209.792 80.9219 210.388 80.2927 211.138 80.2927ZM210.821 81.8658H211.021C211.262 81.8658 211.377 81.9516 211.425 82.1899C211.464 82.4377 211.512 82.5998 211.551 82.657H211.868C211.838 82.5998 211.79 82.4854 211.752 82.1995C211.714 81.9231 211.608 81.7801 211.435 81.7515V81.7324C211.637 81.6752 211.8 81.5228 211.8 81.2844C211.8 81.1129 211.742 80.9794 211.627 80.9031C211.512 80.8174 211.329 80.7602 211.051 80.7602C210.83 80.7602 210.676 80.7792 210.523 80.8078V82.6568H210.821V81.8658ZM210.821 81.0079C210.869 80.9984 210.936 80.9888 211.032 80.9888C211.368 80.9888 211.483 81.1509 211.483 81.313C211.483 81.5417 211.271 81.6275 211.032 81.6275H210.821V81.0079Z" fill="#00084D"></path></g><defs><clipPath id="clip0_9346_46789"><rect width="124.369" height="36.3721" fill="white" transform="translate(101 76)"></rect></clipPath></defs></svg> 