<?xml version="1.0" encoding="UTF-8"?> <svg xmlns="http://www.w3.org/2000/svg" width="324" height="188" viewBox="0 0 324 188" fill="none"><mask id="path-1-inside-1_9346_46780" fill="white"><path d="M0 0H324V188H0V0Z"></path></mask><path d="M0 0V-1H-1V0H0ZM324 0H325V-1H324V0ZM324 188V189H325V188H324ZM0 188H-1V189H0V188ZM0 1H324V-1H0V1ZM323 0V188H325V0H323ZM324 187H0V189H324V187ZM1 188V0H-1V188H1Z" fill="#E1E2E6" mask="url(#path-1-inside-1_9346_46780)"></path><path fill-rule="evenodd" clip-rule="evenodd" d="M212.892 94.8932C212.892 87.652 209.389 81.9383 202.695 81.9383C195.972 81.9383 191.904 87.652 191.904 94.8366C191.904 103.351 196.706 107.65 203.599 107.65C206.96 107.65 209.502 106.886 211.423 105.811V100.154C209.502 101.116 207.299 101.71 204.503 101.71C201.762 101.71 199.333 100.748 199.022 97.4106H212.836C212.836 97.0429 212.892 95.572 212.892 94.8932ZM198.938 92.206C198.938 89.0097 200.887 87.6803 202.666 87.6803C204.39 87.6803 206.226 89.0097 206.226 92.206H198.938ZM181 81.9383C178.232 81.9383 176.452 83.2394 175.464 84.1446L175.096 82.3909H168.882V115.372L175.944 113.873L175.972 105.868C176.989 106.603 178.486 107.65 180.972 107.65C186.028 107.65 190.633 103.577 190.633 94.6103C190.604 86.4075 185.944 81.9383 181 81.9383ZM179.305 101.427C177.639 101.427 176.65 100.833 175.972 100.098L175.944 89.6037C176.678 88.7835 177.695 88.2177 179.305 88.2177C181.876 88.2177 183.655 91.1029 183.655 94.8083C183.655 98.5986 181.904 101.427 179.305 101.427ZM159.164 80.2694L166.255 78.742V73L159.164 74.4991V80.2694ZM159.164 82.4192H166.255V107.169H159.164V82.4192ZM151.566 84.5123L151.114 82.4192H145.012V107.169H152.074V90.3957C153.741 88.2177 156.566 88.6137 157.441 88.9249V82.4192C156.537 82.0797 153.232 81.4574 151.566 84.5123ZM137.442 76.2811L130.549 77.752L130.521 100.409C130.521 104.595 133.656 107.678 137.837 107.678C140.153 107.678 141.848 107.254 142.781 106.745V101.003C141.877 101.371 137.413 102.672 137.413 98.4855V88.444H142.781V82.4192H137.413L137.442 76.2811ZM118.346 89.6037C118.346 88.5006 119.25 88.0763 120.747 88.0763C122.894 88.0763 125.606 88.7269 127.753 89.8866V83.2394C125.408 82.306 123.092 81.9383 120.747 81.9383C115.013 81.9383 111.199 84.9366 111.199 89.9432C111.199 97.75 121.933 96.5055 121.933 99.8715C121.933 101.173 120.804 101.597 119.222 101.597C116.877 101.597 113.883 100.635 111.51 99.334V106.066C114.137 107.197 116.792 107.678 119.222 107.678C125.097 107.678 129.137 104.765 129.137 99.7018C129.108 91.2726 118.346 92.7717 118.346 89.6037Z" fill="#00084D"></path></svg> 