<?xml version="1.0" encoding="UTF-8"?> <svg xmlns="http://www.w3.org/2000/svg" width="325" height="188" viewBox="0 0 325 188" fill="none"><mask id="path-1-inside-1_9346_46800" fill="white"><path d="M0 0H325V188H0V0Z"></path></mask><path d="M0 0V-1H-1V0H0ZM325 0H326V-1H325V0ZM325 188V189H326V188H325ZM0 188H-1V189H0V188ZM0 1H325V-1H0V1ZM324 0V188H326V0H324ZM325 187H0V189H325V187ZM1 188V0H-1V188H1Z" fill="#E1E2E6" mask="url(#path-1-inside-1_9346_46800)"></path><g clip-path="url(#clip0_9346_46800)"><path d="M200.467 105.65H207.362V92.8093C207.362 89.879 209.043 87.8065 211.517 87.8065C213.99 87.8065 215.142 89.5194 215.142 91.9516V105.65H222.037V90.6007C222.037 85.5079 219.031 81.9046 214.169 81.9046C211.076 81.9046 208.909 83.2556 207.274 85.7339H207.141V82.5801H200.467V105.65ZM186.941 81.9484C179.736 81.9484 174.919 87.2209 174.919 94.1602C174.919 101.1 179.736 106.372 186.941 106.372C194.146 106.372 198.963 101.056 198.963 94.1602C198.963 87.2646 194.146 81.9484 186.941 81.9484ZM186.896 101.189C183.626 101.189 181.9 98.3953 181.9 94.1602C181.9 89.9252 183.624 87.131 186.896 87.131C190.168 87.131 191.98 89.879 191.98 94.1602C191.98 98.4414 190.168 101.189 186.896 101.189ZM155.292 105.65H174.653V100.108H163.691V99.9722L174.166 87.9863V82.5801H155.292V88.1223H165.901V88.2584L155.292 100.334V105.65ZM146.452 105.65H153.393V82.5801H146.452V105.65ZM130.364 105.65H137.259V95.0617C137.259 90.2411 140.088 88.1223 144.419 88.7079H144.553V82.6238C144.2 82.4878 143.802 82.444 143.139 82.444C140.444 82.444 138.63 83.7051 137.083 86.4094H136.95V82.5801H130.364V105.65ZM117.68 101.236C114.629 101.236 112.775 99.2068 112.42 96.0992H128.729C128.774 91.1425 127.492 87.1772 124.794 84.6988C122.895 82.896 120.375 81.9046 117.191 81.9046C110.384 81.9046 105.656 87.1772 105.656 94.0703C105.656 100.963 110.165 106.326 117.634 106.326C120.464 106.326 122.718 105.561 124.575 104.253C126.565 102.856 127.978 100.83 128.376 98.801H121.746C121.083 100.332 119.713 101.236 117.68 101.236ZM117.327 86.9512C119.758 86.9512 121.438 88.8002 121.703 91.5021H112.465C112.996 88.7541 114.453 86.9512 117.327 86.9512ZM91.8676 105.65H99.1155L106.983 82.5801H100.043L95.6238 97.4039H95.5356L91.1168 82.5801H84L91.8676 105.65ZM146.455 74.3798H153.395V80.6436H146.455V74.3798Z" fill="#00084D"></path><path d="M221.922 82.5801H225.452L228.984 90.2994L237.812 71H241.344L230.75 94.1602H227.218L221.922 82.5801Z" fill="#00084D"></path></g><defs><clipPath id="clip0_9346_46800"><rect width="157.345" height="35.3721" fill="white" transform="translate(84 71)"></rect></clipPath></defs></svg> 