<?xml version="1.0" encoding="UTF-8"?> <svg xmlns="http://www.w3.org/2000/svg" width="324" height="188" viewBox="0 0 324 188" fill="none"><mask id="path-1-inside-1_9346_46782" fill="white"><path d="M0 0H324V188H0V0Z"></path></mask><path d="M0 0V-1H-1V0H0ZM324 0H325V-1H324V0ZM324 188V189H325V188H324ZM0 188H-1V189H0V188ZM0 1H324V-1H0V1ZM323 0V188H325V0H323ZM324 187H0V189H324V187ZM1 188V0H-1V188H1Z" fill="#E1E2E6" mask="url(#path-1-inside-1_9346_46782)"></path><path d="M148.691 84.0187L140.878 97.2616V106.134C141.805 108.253 144.056 108.518 146.307 108.65V109.975H130.813V108.783C133.065 108.65 135.713 108.386 136.375 106.929V97.7913L128.43 84.2836C126.973 81.8999 125.649 81.1053 123 80.8404V79.6486H136.375V80.8404C133.859 81.1053 133.065 81.5026 132.402 82.0323L139.818 94.8779L147.102 82.1647C146.307 81.5026 145.248 81.1053 142.732 80.8404V79.6486H154.121V80.8404C151.605 80.9729 150.015 81.8999 148.691 84.0187ZM164.318 110.372C161.802 110.372 160.477 108.65 160.345 107.326C158.756 109.048 156.637 110.372 154.65 110.372C152.134 110.372 149.883 108.783 149.883 106.134C149.883 104.81 150.28 103.353 150.942 102.294L160.477 98.8508V95.2752C160.477 93.1563 159.418 91.0375 157.299 91.0375C155.975 91.0375 154.783 92.6266 154.65 95.0103L150.413 95.6725V95.4076C151.869 91.1699 156.504 89.4483 158.888 89.4483C163.258 89.4483 164.848 91.6996 164.715 95.2752L164.583 105.34C164.583 107.326 165.642 107.723 166.569 107.723C167.364 107.723 168.158 107.194 168.953 106.399V107.723C167.893 108.915 166.039 110.372 164.318 110.372ZM154.783 102.691C154.65 103.486 154.386 104.148 154.386 105.207C154.386 106.664 155.18 108.121 156.769 108.121C158.226 108.121 159.021 107.591 160.345 106.664V100.175C159.153 100.572 156.107 102.029 154.783 102.691ZM169.35 109.975V108.915C171.469 108.783 172.131 108.253 172.528 107.459V82.6944C172.528 81.1053 172.264 80.4432 168.953 80.1783V79.2513L177.693 77L177.958 77.7946L176.634 79.5161V107.459C177.163 108.386 177.958 108.783 179.944 108.915V109.975H169.35ZM191.333 110.372C186.301 110.372 182.461 106.399 182.461 100.837C182.461 94.0833 186.566 89.4483 192.525 89.4483C197.293 89.4483 199.809 92.0969 199.809 96.3346V97.1292L186.963 96.9968C186.831 97.5265 186.831 98.321 186.831 99.3805C186.831 104.28 189.877 107.459 193.982 107.459C196.366 107.459 197.69 106.664 199.544 104.942L200.206 106.002C197.557 108.783 195.306 110.372 191.333 110.372ZM191.731 90.905C189.347 90.905 187.625 92.759 187.096 95.8049L195.439 95.6725C195.571 93.2887 193.982 90.905 191.731 90.905Z" fill="#00084D"></path></svg> 